<svg xmlns:mydata="http://www.w3.org/2000/svg" mydata:contrastcolor="ffffff" mydata:template="InvertedHex1" mydata:presentation="2.5" mydata:layouttype="undefined" mydata:specialfontid="undefined" mydata:id1="113" mydata:id2="949" mydata:companyname="Guilherme Marques" mydata:companytagline="" version="1.1" xmlns="http://www.w3.org/2000/svg" xmlns:xlink="http://www.w3.org/1999/xlink" viewBox="133.6683194580283 117.48563438789375 282.66336108394336 235.02873122421255" class="watermark-logo"><g fill="#bbbcbc" fill-rule="none" stroke="none" stroke-width="1" stroke-linecap="butt" stroke-linejoin="miter" stroke-miterlimit="10" stroke-dasharray="" stroke-dashoffset="0" font-family="none" font-weight="none" font-size="none" text-anchor="none" style="mix-blend-mode: normal"><g data-paper-data="{&quot;isGlobalGroup&quot;:true,&quot;bounds&quot;:{&quot;x&quot;:133.6683194580283,&quot;y&quot;:117.48563438789375,&quot;width&quot;:282.66336108394336,&quot;height&quot;:235.02873122421255}}"><g data-paper-data="{&quot;stacked&quot;:true,&quot;isPrimaryText&quot;:true}" fill-rule="nonzero"><path d="M153.07836,258.93407c-2.63229,0 -5.12927,0.47972 -7.49095,1.43915c-2.36168,0.95943 -4.422,2.29403 -6.18095,4.00378c-1.75896,1.70976 -3.15505,3.81313 -4.18829,6.31011c-1.03323,2.49698 -1.54985,5.20922 -1.54985,8.13672c0,2.9275 0.51662,5.63974 1.54985,8.13672c1.03323,2.49698 2.42933,4.60035 4.18829,6.31011c1.75896,1.70976 3.81928,3.04435 6.18095,4.00378c2.36168,0.95943 4.85866,1.43915 7.49095,1.43915c4.52655,0 8.54878,-1.42685 12.0667,-4.28054v3.87463h5.79349v-20.40638h-15.79372v5.46138h9.77882v3.17351c-0.27061,0.49202 -1.03323,1.36535 -2.28788,2.61999c-2.41088,2.36168 -5.59669,3.54252 -9.55742,3.54252c-3.98533,0 -7.18344,-1.18084 -9.59432,-3.54252c-2.53388,-2.48468 -3.80083,-5.9288 -3.80083,-10.33234c0,-4.40355 1.26694,-7.84766 3.80083,-10.33234c2.41088,-2.36168 5.60899,-3.54252 9.59432,-3.54252c3.93613,0 7.10964,1.18084 9.52052,3.54252c0.44281,0.41821 0.95943,1.05784 1.54985,1.91886l0.55352,0.81183h6.23631c-0.0984,-0.73802 -0.43051,-1.62365 -0.99633,-2.65689c-1.67286,-3.0259 -4.00378,-5.38758 -6.99278,-7.08503c-2.989,-1.69746 -6.27936,-2.54618 -9.87108,-2.54618z" data-paper-data="{&quot;glyphName&quot;:&quot;G&quot;,&quot;glyphIndex&quot;:0,&quot;firstGlyphOfWord&quot;:true,&quot;word&quot;:1,&quot;line&quot;:1,&quot;firstGlyphOfFirstLine&quot;:true}" style="fill: rgb(255, 255, 255);"></path><path d="M174.99769,259.37688v22.50975c0,4.74796 1.57445,8.73944 4.72336,11.97445c3.1489,3.23501 6.96203,4.85251 11.43938,4.85251c4.47735,0 8.29047,-1.6175 11.43938,-4.85251c3.1489,-3.23501 4.72336,-7.22649 4.72336,-11.97445v-22.50975h-6.0518v22.14073c0,3.22271 -0.97173,5.88574 -2.9152,7.98911c-1.94346,2.10337 -4.34204,3.15505 -7.19574,3.15505c-2.85369,0 -5.25227,-1.05168 -7.19574,-3.15505c-1.94346,-2.10337 -2.9152,-4.76641 -2.9152,-7.98911v-22.14073z" data-paper-data="{&quot;glyphName&quot;:&quot;U&quot;,&quot;glyphIndex&quot;:1,&quot;word&quot;:1,&quot;line&quot;:1}" style="fill: rgb(255, 255, 255);"></path><path d="M212.12032,259.37688v38.89389h5.978v-38.89389z" data-paper-data="{&quot;glyphName&quot;:&quot;I&quot;,&quot;glyphIndex&quot;:2,&quot;word&quot;:1,&quot;line&quot;:1}" style="fill: rgb(255, 255, 255);"></path><path d="M223.26449,259.37688v38.89389h25.53565v-5.64589h-19.52075v-33.248z" data-paper-data="{&quot;glyphName&quot;:&quot;L&quot;,&quot;glyphIndex&quot;:3,&quot;word&quot;:1,&quot;line&quot;:1}" style="fill: rgb(255, 255, 255);"></path><path d="M252.49025,259.37688v38.89389h5.978v-16.86386h17.71259v16.86386h5.978v-38.89389h-5.978v16.38414h-17.71259v-16.38414z" data-paper-data="{&quot;glyphName&quot;:&quot;H&quot;,&quot;glyphIndex&quot;:4,&quot;word&quot;:1,&quot;line&quot;:1}" style="fill: rgb(255, 255, 255);"></path><path d="M286.58698,259.37688v38.89389h25.53565v-5.68279h-19.52075v-11.36558h17.38048v-5.46138h-17.38048v-10.81206h19.52075v-5.57208z" data-paper-data="{&quot;glyphName&quot;:&quot;E&quot;,&quot;glyphIndex&quot;:5,&quot;word&quot;:1,&quot;line&quot;:1}" style="fill: rgb(255, 255, 255);"></path><path d="M316.55078,259.37688v38.89389h6.1256v-15.60922h7.78616l7.67545,15.60922h6.67912c-3.93613,-7.87226 -6.71602,-13.46895 -8.33968,-16.79006c2.16487,-0.91023 3.89308,-2.29403 5.18462,-4.15139c1.29154,-1.85736 1.93731,-3.96688 1.93731,-6.32856c0,-3.54252 -1.18084,-6.35931 -3.54252,-8.45038c-2.38628,-2.11567 -5.53518,-3.17351 -9.44671,-3.17351zM322.67638,265.24417h7.67545c2.26327,0 4.05913,0.54122 5.38758,1.62365c1.25464,1.00863 1.88196,2.38628 1.88196,4.13294c0,1.69746 -0.62732,3.0751 -1.88196,4.13294c-1.27924,1.08244 -3.0751,1.62365 -5.38758,1.62365h-7.67545z" data-paper-data="{&quot;glyphName&quot;:&quot;R&quot;,&quot;glyphIndex&quot;:6,&quot;word&quot;:1,&quot;line&quot;:1}" style="fill: rgb(255, 255, 255);"></path><path d="M348.87625,259.37688v38.89389h6.0149v-22.87876l9.92643,22.87876h5.60899l9.92643,-22.87876v22.87876h6.0149v-38.89389h-5.71969l-13.02613,30.1852l-13.02613,-30.1852z" data-paper-data="{&quot;glyphName&quot;:&quot;M&quot;,&quot;glyphIndex&quot;:7,&quot;word&quot;:1,&quot;line&quot;:1}" style="fill: rgb(255, 255, 255);"></path><path d="M390.79603,259.37688v38.89389h25.53565v-5.68279h-19.52075v-11.36558h17.38048v-5.46138h-17.38048v-10.81206h19.52075v-5.57208z" data-paper-data="{&quot;glyphName&quot;:&quot;E&quot;,&quot;glyphIndex&quot;:8,&quot;lastGlyphOfWord&quot;:true,&quot;word&quot;:1,&quot;line&quot;:1,&quot;lastGlyphOfFirstLine&quot;:true}" style="fill: rgb(255, 255, 255);"></path><path d="M133.66832,308.84229v43.13999h6.67155v-25.37646l11.01011,25.37646h6.22133l11.01011,-25.37646v25.37646h6.67155v-43.13999h-6.34412l-14.44821,33.48056l-14.44821,-33.48056z" data-paper-data="{&quot;glyphName&quot;:&quot;M&quot;,&quot;glyphIndex&quot;:9,&quot;firstGlyphOfWord&quot;:true,&quot;word&quot;:2,&quot;line&quot;:2,&quot;firstGlyphOfSecondLine&quot;:true}" style="fill: rgb(255, 255, 255);"></path><path d="M196.78204,308.84229c-2.70137,6.46691 -8.64983,20.8469 -17.84538,43.13999h7.32643c0.51844,-1.25518 1.30293,-3.15841 2.35346,-5.7097c1.05053,-2.55129 1.83502,-4.46817 2.35346,-5.75063h17.92724c0.51844,1.25518 1.30293,3.16524 2.35346,5.73017c1.05053,2.56493 1.83502,4.47499 2.35346,5.73017h7.32643c-6.73977,-16.23548 -12.68823,-30.61548 -17.84538,-43.13999zM199.93364,318.70637l6.38505,15.55332h-12.77009z" data-paper-data="{&quot;glyphName&quot;:&quot;A&quot;,&quot;glyphIndex&quot;:10,&quot;word&quot;:2,&quot;line&quot;:2}" style="fill: rgb(255, 255, 255);"></path><path d="M224.61429,308.84229v43.13999h6.79434v-17.3133h8.63618l8.51339,17.3133h7.40829c-4.36584,-8.73169 -7.44922,-14.93937 -9.25013,-18.62305c2.40121,-1.0096 4.31809,-2.54447 5.75063,-4.6046c1.43254,-2.06013 2.14881,-4.39995 2.14881,-7.01946c0,-3.92926 -1.30975,-7.05357 -3.92926,-9.37292c-2.64679,-2.34664 -6.13947,-3.51996 -10.47802,-3.51996zM231.40864,315.35012h8.51339c2.51036,0 4.50228,0.6003 5.97575,1.80091c1.39161,1.11875 2.08742,2.64679 2.08742,4.58414c0,1.88277 -0.69581,3.41082 -2.08742,4.58414c-1.4189,1.20061 -3.41082,1.80091 -5.97575,1.80091h-8.51339z" data-paper-data="{&quot;glyphName&quot;:&quot;R&quot;,&quot;glyphIndex&quot;:11,&quot;word&quot;:2,&quot;line&quot;:2}" style="fill: rgb(255, 255, 255);"></path><path d="M281.58855,352.47344c4.99343,0 9.37292,-1.40526 13.13846,-4.21577l3.80647,3.72461h9.41385l-8.59525,-8.51339c2.51036,-3.65639 3.76554,-8.00859 3.76554,-13.0566c0,-3.2471 -0.57302,-6.25543 -1.71905,-9.02502c-1.14603,-2.76958 -2.69454,-5.10258 -4.64553,-6.99899c-1.95099,-1.89641 -4.23623,-3.37671 -6.85574,-4.44088c-2.61951,-1.06417 -5.38909,-1.59626 -8.30875,-1.59626c-2.91966,0 -5.68924,0.53209 -8.30875,1.59626c-2.61951,1.06417 -4.90475,2.54447 -6.85574,4.44088c-1.95099,1.89641 -3.4995,4.22941 -4.64553,6.99899c-1.14603,2.76958 -1.71905,5.77792 -1.71905,9.02502c0,3.2471 0.57302,6.25543 1.71905,9.02502c1.14603,2.76958 2.69454,5.10258 4.64553,6.99899c1.95099,1.89641 4.23623,3.37671 6.85574,4.44088c2.61951,1.06417 5.38909,1.59626 8.30875,1.59626zM281.58855,315.02269c4.39313,0 7.92673,1.30975 10.60081,3.92926c2.8378,2.78323 4.2567,6.60334 4.2567,11.46034c0,3.13795 -0.62759,5.89389 -1.88277,8.26782l-4.13391,-4.13391h-9.41385c4.22941,4.2567 7.23093,7.27186 9.00455,9.04548c-2.34664,1.47347 -5.15715,2.21021 -8.43153,2.21021c-4.42042,0 -7.96766,-1.30975 -10.64174,-3.92926c-2.81051,-2.75594 -4.21577,-6.57605 -4.21577,-11.46034c0,-4.88429 1.40526,-8.7044 4.21577,-11.46034c2.67408,-2.61951 6.22133,-3.92926 10.64174,-3.92926z" data-paper-data="{&quot;glyphName&quot;:&quot;Q&quot;,&quot;glyphIndex&quot;:12,&quot;word&quot;:2,&quot;line&quot;:2}" style="fill: rgb(255, 255, 255);"></path><path d="M308.35663,308.84229v24.96717c0,5.2663 1.74634,9.69354 5.23901,13.28171c3.49267,3.58818 7.72209,5.38227 12.68823,5.38227c4.96615,0 9.19556,-1.79409 12.68823,-5.38227c3.49267,-3.58818 5.23901,-8.01542 5.23901,-13.28171v-24.96717h-6.71248v24.55787c0,3.57453 -1.07782,6.5283 -3.23345,8.8613c-2.15564,2.333 -4.81607,3.4995 -7.98131,3.4995c-3.16524,0 -5.82567,-1.1665 -7.98131,-3.4995c-2.15564,-2.333 -3.23345,-5.28676 -3.23345,-8.8613v-24.55787z" data-paper-data="{&quot;glyphName&quot;:&quot;U&quot;,&quot;glyphIndex&quot;:13,&quot;word&quot;:2,&quot;line&quot;:2}" style="fill: rgb(255, 255, 255);"></path><path d="M348.71339,308.84229v43.13999h28.32341v-6.30319h-21.65185v-12.60637h19.27793v-6.05761h-19.27793v-11.99243h21.65185v-6.1804z" data-paper-data="{&quot;glyphName&quot;:&quot;E&quot;,&quot;glyphIndex&quot;:14,&quot;word&quot;:2,&quot;line&quot;:2}" style="fill: rgb(255, 255, 255);"></path><path d="M397.41983,308.3102c-4.01112,0.02729 -7.32643,1.1051 -9.94594,3.23345c-2.70137,2.18292 -4.16119,5.04801 -4.37949,8.59525c-0.32744,4.93886 1.69176,8.32239 6.05761,10.15059c2.15564,0.92774 5.23219,1.77362 9.22967,2.53765c3.99748,0.76402 6.67838,1.43254 8.0427,2.00556c1.20061,0.51844 2.06013,1.30293 2.57858,2.35346c0.51844,1.05053 0.65488,2.13517 0.4093,3.25392c-0.8186,3.62911 -4.01112,5.44366 -9.57757,5.44366c-5.59374,0 -10.60081,-1.85548 -15.02123,-5.56645c-0.35472,0.68216 -0.90046,1.69859 -1.63719,3.04927c-0.73674,1.35068 -1.28247,2.36711 -1.63719,3.04927c5.43002,4.03841 11.50127,6.07125 18.21375,6.09854c3.68368,0 6.91713,-0.69581 9.70036,-2.08742c1.63719,-0.8186 3.03563,-1.98509 4.1953,-3.4995c1.15968,-1.5144 1.94416,-3.21299 2.35346,-5.09576c0.65488,-3.08338 0.33426,-5.81885 -0.96185,-8.20642c-1.29611,-2.38757 -3.34942,-4.0998 -6.15993,-5.13669c-1.96463,-0.70945 -4.93204,-1.46665 -8.90223,-2.2716c-3.97019,-0.80495 -6.54194,-1.52122 -7.71526,-2.14881c-1.09146,-0.54573 -1.78045,-1.30293 -2.06695,-2.2716c-0.28651,-0.96867 -0.24558,-1.91006 0.12279,-2.82415c0.36837,-0.9141 0.93456,-1.69859 1.69859,-2.35346c1.39161,-1.17332 3.41082,-1.78727 6.05761,-1.84184c2.23749,-0.02729 4.51592,0.38883 6.83527,1.24836c2.31935,0.85953 4.22941,1.94416 5.73017,3.25392l3.31531,-5.64831c-4.52956,-3.62911 -10.04144,-5.40273 -16.53563,-5.32087z" data-paper-data="{&quot;glyphName&quot;:&quot;S&quot;,&quot;glyphIndex&quot;:15,&quot;lastGlyphOfWord&quot;:true,&quot;word&quot;:2,&quot;line&quot;:2,&quot;lastGlyphOfSecondLine&quot;:true}" style="fill: rgb(255, 255, 255);"></path></g><g data-paper-data="{&quot;isIcon&quot;:&quot;true&quot;,&quot;iconType&quot;:&quot;icon&quot;,&quot;rawIconId&quot;:&quot;2010686&quot;,&quot;selectedEffects&quot;:{&quot;container&quot;:&quot;&quot;,&quot;transformation&quot;:&quot;&quot;,&quot;pattern&quot;:&quot;&quot;},&quot;combineTerms&quot;:&quot;undefined&quot;,&quot;isDetailed&quot;:false,&quot;fillRule&quot;:&quot;evenodd&quot;,&quot;bounds&quot;:{&quot;x&quot;:184.72601703497287,&quot;y&quot;:117.48563438789375,&quot;width&quot;:180.54796593005415,&quot;height&quot;:117.810003221697},&quot;iconStyle&quot;:&quot;standalone&quot;,&quot;suitableAsStandaloneIcon&quot;:true}" fill-rule="evenodd"><path d="M337.55398,172.92563l27.72,-27.72l-27.72,-27.72l-27.72,27.72zM243.84566,204.07997l27.72,-27.72l-27.72,-27.72l-27.72,27.72zM306.15434,204.07997l27.72,-27.72l-27.72,-27.72l-27.72,27.72zM247.1755,207.54227l27.75336,-27.75336l27.75336,27.75336l-27.75336,27.75336zM212.69133,235.23431l27.72,-27.72l-27.72,-27.72h-0.24531l-27.72,27.72z" data-paper-data="{&quot;isPathIcon&quot;:true}" style="fill: rgb(255, 255, 255);"></path></g></g></g></svg>